<?xml version="1.0" encoding="utf-8"?>
<!-- Generator: Adobe Illustrator 24.0.0, SVG Export Plug-In . SVG Version: 6.00 Build 0)  -->
<svg version="1.1" id="Calque_1" xmlns="http://www.w3.org/2000/svg" xmlns:xlink="http://www.w3.org/1999/xlink" x="0px" y="0px"
	 viewBox="0 0 600 609.9" style="enable-background:new 0 0 600 609.9;" xml:space="preserve">
<style type="text/css">
	.st0{opacity:0.5;}
	.st1{fill:#FFFFFF;}
</style>
<title>Icône scroll</title>
<g class="st0">
	<path class="st1" d="M586.8,13.2c17.6,17.6,17.6,46,0.1,63.6c0,0-0.1,0.1-0.1,0.1L363.7,300l-31.9,31.9
		c-17.6,17.6-46.1,17.6-63.7,0c0,0,0,0,0,0L236.3,300L13.2,76.9c-17.6-17.6-17.6-46-0.1-63.6c0,0,0.1-0.1,0.1-0.1l0,0
		c17.6-17.6,46-17.6,63.6-0.1c0,0,0.1,0.1,0.1,0.1l223.1,223L523.1,13.2C540.6-4.4,569.1-4.4,586.8,13.2
		C586.7,13.1,586.8,13.2,586.8,13.2L586.8,13.2z"/>
	<path class="st1" d="M586.8,278c17.6,17.6,17.6,46,0.1,63.6c0,0-0.1,0.1-0.1,0.1L363.7,564.8l-31.9,31.9
		c-17.6,17.6-46.1,17.6-63.7,0c0,0,0,0,0,0l-31.9-31.9L13.2,341.8c-17.6-17.6-17.6-46-0.1-63.6c0,0,0.1-0.1,0.1-0.1l0,0
		c17.6-17.6,46-17.6,63.6-0.1c0,0,0.1,0.1,0.1,0.1L300,501.1L523.1,278C540.6,260.4,569.1,260.4,586.8,278
		C586.7,278,586.8,278,586.8,278L586.8,278z"/>
</g>
</svg>
